<svg
    width="48"
    height="48"
    viewBox="0 0 48 48"
    fill="none"
    xmlns="http://www.w3.org/2000/svg"
    className=""
  >
    <path
      d="M12 12C12 12 12 16 12 18C12 22.4183 17.3726 26 24 26C30.6274 26 36 22.4183 36 18C36 16 36 12 36 12"
      stroke="currentColor"
      strokeWidth="2.5"
      strokeLinecap="round"
      strokeLinejoin="round"
    />
    <line
      x1="12"
      y1="12"
      x2="36"
      y2="12"
      stroke="currentColor"
      strokeWidth="2.5"
      strokeLinecap="round"
    />
    <path
      d="M24 26V40M18 40H30"
      stroke="currentColor"
      strokeWidth="2.5"
      strokeLinecap="round"
      strokeLinejoin="round"
    />
    <path
      d="M12 12C12 12 12 15 12 16C12 19.3137 17.3726 22 24 22C30.6274 22 36 19.3137 36 16C36 15 36 12 36 12"
      fill="currentColor"
      opacity="0.1"
    />
  </svg>