<svg
    width="48"
    height="48"
    viewBox="0 0 48 48"
    fill="none"
    xmlns="http://www.w3.org/2000/svg"
    className=""
  >
    <path
      d="M10 10C10 10 12 8 24 8C36 8 38 10 38 10L30 24H18L10 10Z"
      stroke="currentColor"
      strokeWidth="2.5"
      strokeLinecap="round"
      strokeLinejoin="round"
    />
    <path
      d="M18 24L22 30H26L30 24"
      stroke="currentColor"
      strokeWidth="2.5"
      strokeLinecap="round"
      strokeLinejoin="round"
    />
    <path
      d="M22 30V40M26 30V40M18 40H30"
      stroke="currentColor"
      strokeWidth="2.5"
      strokeLinecap="round"
      strokeLinejoin="round"
    />
    <path
      d="M10 10C10 10 11 11 13 11C15 11 16 10 18 10C20 10 21 11 24 11C27 11 28 10 30 10C32 10 33 11 35 11C37 11 38 10 38 10"
      stroke="currentColor"
      strokeWidth="2"
      strokeLinecap="round"
      strokeLinejoin="round"
    />
    <rect x="18" y="14" width="12" height="8" fill="currentColor" opacity="0.1" />
  </svg>